<?xml version="1.0" standalone="no"?>
<!DOCTYPE svg PUBLIC "-//W3C//DTD SVG 20010904//EN"
 "http://www.w3.org/TR/2001/REC-SVG-20010904/DTD/svg10.dtd">
<svg version="1.0" xmlns="http://www.w3.org/2000/svg"
 width="700.000000pt" height="700.000000pt" viewBox="0 0 700.000000 700.000000"
 preserveAspectRatio="xMidYMid meet">
<metadata>
Created by potrace 1.11, written by Peter Selinger 2001-2013
</metadata>
<g transform="translate(0.000000,700.000000) scale(0.100000,-0.100000)"
fill="#000000" stroke="none">
<path d="M1821 6330 c-117 -25 -228 -110 -275 -210 l-21 -45 0 -1795 c0 -1582
3 -1903 20 -1953 2 -7 6 -28 9 -47 27 -171 106 -398 198 -570 234 -432 602
-751 1073 -930 125 -48 310 -92 451 -107 132 -15 426 -8 530 11 11 2 39 7 64
11 71 11 246 62 347 101 320 125 612 339 829 609 43 53 154 212 154 220 0 3
14 28 31 56 37 60 106 214 142 319 76 219 107 421 102 675 -2 99 -5 191 -8
205 -3 14 -9 48 -13 75 -8 56 -8 53 -23 127 -21 93 -62 220 -113 339 -204 485
-613 878 -1108 1067 -103 39 -229 78 -286 88 -16 3 -36 7 -44 9 -8 2 -37 7
-65 11 -27 3 -59 8 -70 11 -51 13 -405 11 -500 -3 -303 -42 -584 -146 -823
-303 -51 -33 -95 -62 -99 -63 -4 -2 -8 409 -8 912 l-1 915 -25 55 c-42 88
-116 153 -219 193 -53 21 -187 30 -249 17z m1886 -2407 c49 -7 102 -18 118
-23 17 -5 55 -17 85 -26 87 -26 251 -109 338 -172 262 -187 439 -447 516 -757
23 -95 27 -131 31 -280 6 -269 -54 -488 -197 -718 -62 -100 -74 -114 -188
-227 -186 -185 -399 -300 -662 -356 -169 -36 -460 -21 -628 33 -174 55 -368
167 -499 290 -63 57 -98 97 -181 200 -22 28 -89 143 -117 203 -78 166 -114
325 -118 520 -6 288 64 531 218 757 202 296 498 489 852 553 121 22 308 23
432 3z"/>
</g>
</svg>
